<?xml version="1.0" encoding="UTF-8"?>
<svg id="Layer_2" data-name="Layer 2" xmlns="http://www.w3.org/2000/svg" viewBox="0 0 241.55 63.74">
  <defs>
    <style>
      .cls-1 {
        fill: #231f20;
        stroke-width: 0px;
      }
    </style>
  </defs>
  <g id="Layer_1-2" data-name="Layer 1">
    <g>
      <path class="cls-1" d="M73.52,12.35c3,.01,7.04,0,9.03,0V.65l-39.93.03.02,11.69s6.64-.08,8.85.01c1,.04,2.57.34,2.62,3.12.03,2.35,0,6.14,0,6.14h-25.67s-.04-3.8,0-6.14c.05-2.78,1.62-3.08,2.62-3.12,2.21-.09,8.85-.01,8.85-.01l.03-11.69L0,.65v11.7c2,0,6.03.01,9.03,0,1.78,0,2.69,1.02,2.61,3.11,0,0-.01,30.6.03,32.09.12,4.19-3.07,4.07-3.07,4.07H0s0,11.47,0,11.47h33.25c-.07-.97.02-3.69.11-3.98.27-.62,4.81-.41,4.81-.41v-8.92c0-.15-.52-.72-.52-1.31-.01-.66.52-1.04.52-1.31v-6.3c0-4.54-4.72-3.96-4.99-1.48-.22,1.94-.31,4.27-.31,4.27h-4.42s-.23-2.79.06-3.16c1.11-1.41,0-2.04-.07-2.08,0,0,.12-2.16,0-5.43-.07-1.98.76-1.24,1.57-.44,1.85,1.82,3.15.56,3.41.44.72-.35,6.15-.37,7.07.05.05.02.17.1.19.12.1.1.43.3.54.36.02.01.04.01.07,0,.11-.05.44-.26.54-.36.02-.02.14-.1.19-.12.92-.43,6.35-.4,7.07-.05.26.12,1.56,1.37,3.41-.44.81-.8,1.65-1.53,1.58.44-.12,3.27,0,5.43,0,5.43-.07.04-1.18.67-.07,2.08.29.37.06,3.16.06,3.16h-4.42s-.1-2.33-.31-4.27c-.27-2.48-4.98-3.07-4.98,1.48v6.3c0,.27.53.65.52,1.31,0,.59-.52,1.17-.52,1.31v8.92s4.54-.21,4.81.41c.09.29.19,3.01.12,3.98h33.25v-11.48h-8.6s-3.19.14-3.07-4.05c.04-1.49.03-32.09.03-32.09-.08-2.1.83-3.12,2.61-3.11"/>
      <polygon class="cls-1" points="100.76 17.61 100.76 10.95 92.78 10.95 92.78 17.61 87.81 17.61 87.81 .56 92.78 .56 92.78 7.42 100.76 7.42 100.76 .56 105.75 .56 105.75 17.61 100.76 17.61"/>
      <path class="cls-1" d="M117.62,5.12l-2.48,5.94h4.89l-2.41-5.94ZM122.64,17.61l-1.46-3.53h-7.27l-1.48,3.53h-4.61L115.3.56h5.07l7.57,17.04h-5.3Z"/>
      <polygon class="cls-1" points="148.31 17.61 148.31 6.17 147.36 8.34 142.91 17.61 139.91 17.61 135.51 8.32 134.56 6.14 134.56 17.61 130.01 17.61 130.01 .56 136.79 .56 141.01 9.75 141.7 11.36 142.4 9.75 146.59 .56 153.25 .56 153.25 17.61 148.31 17.61"/>
      <rect class="cls-1" x="157.66" y=".56" width="4.96" height="17.04"/>
      <polygon class="cls-1" points="167.03 17.61 167.03 .56 172 .56 172 13.74 182.93 13.74 182.93 17.61 167.03 17.61"/>
      <polygon class="cls-1" points="192.75 4.38 192.75 17.61 187.76 17.61 187.76 4.38 181.46 4.38 181.46 .56 199.02 .56 199.02 4.38 192.75 4.38"/>
      <path class="cls-1" d="M214.79,7.96c0-2.38-1.56-4.3-4.35-4.3s-4.35,1.92-4.35,4.3v2.23c0,2.38,1.54,4.3,4.35,4.3s4.35-1.92,4.35-4.3v-2.23ZM210.44,18.17c-5.71,0-9.42-3.66-9.42-8.16v-1.84c0-4.53,3.71-8.16,9.42-8.16s9.42,3.63,9.42,8.16v1.84c0,4.5-3.71,8.16-9.42,8.16"/>
      <polygon class="cls-1" points="237.38 17.61 229.65 8.8 228.45 7.35 228.45 17.61 223.77 17.61 223.77 .56 228.09 .56 235.69 9.39 236.87 10.85 236.87 .56 241.55 .56 241.55 17.61 237.38 17.61"/>
      <polygon class="cls-1" points="109.51 63.07 109.51 49.48 108.38 52.07 103.09 63.07 99.53 63.07 94.3 52.04 93.18 49.45 93.18 63.07 87.77 63.07 87.77 42.82 95.82 42.82 100.84 53.74 101.66 55.65 102.48 53.74 107.47 42.82 115.38 42.82 115.38 63.07 109.51 63.07"/>
      <path class="cls-1" d="M129.91,63.74c-7.24,0-10.58-3.74-10.58-8.51v-12.41h5.93v12.16c0,2.68,1.67,4.29,4.96,4.29s4.81-1.61,4.81-4.29v-12.16h5.41v12.41c0,4.68-3.22,8.51-10.52,8.51"/>
      <path class="cls-1" d="M153.99,63.74c-4.38,0-8.09-1.31-11.07-3.19l2.37-3.56c2.83,1.7,5.99,2.74,8.82,2.74,3.04,0,4.26-1.03,4.26-2.22,0-3.38-14.44-1.37-14.44-8.76,0-3.65,4.07-6.6,10.1-6.6,4.35,0,7.54,1.4,10.07,3.31l-2.71,3.16c-2.13-1.46-4.93-2.46-7.51-2.46s-4.29.91-4.29,2.13c0,3.29,14.57,1.55,14.57,8.73,0,3.95-4.38,6.72-10.16,6.72"/>
      <polygon class="cls-1" points="167.58 63.07 167.58 42.82 185.91 42.82 185.91 47.2 173.48 47.2 173.48 51 182.36 51 182.36 54.41 173.48 54.41 173.48 58.45 185.91 58.45 185.91 63.07 167.58 63.07"/>
      <path class="cls-1" d="M199.47,63.74c-7.24,0-10.58-3.74-10.58-8.51v-12.41h5.93v12.16c0,2.68,1.67,4.29,4.96,4.29s4.8-1.61,4.8-4.29v-12.16h5.41v12.41c0,4.68-3.22,8.51-10.52,8.51"/>
      <polygon class="cls-1" points="235.68 63.07 235.68 49.48 234.56 52.07 229.27 63.07 225.71 63.07 220.48 52.04 219.35 49.45 219.35 63.07 213.94 63.07 213.94 42.82 222 42.82 227.02 53.74 227.84 55.65 228.66 53.74 233.65 42.82 241.55 42.82 241.55 63.07 235.68 63.07"/>
      <polygon class="cls-1" points="96.08 38.68 94.11 38.68 92.98 28.47 91.7 38.68 89.76 38.68 87.81 21.63 90.01 21.63 90.96 33.12 92.29 21.63 94.03 21.63 95.16 33.12 96.28 21.63 98.33 21.63 96.08 38.68"/>
      <path class="cls-1" d="M104.27,24.65c0-.64-.38-1.1-1.05-1.1s-1.02.46-1.02,1.1v11c0,.67.36,1.1,1.02,1.1s1.05-.43,1.05-1.1v-11ZM103.22,38.93c-1.92,0-3.3-1.43-3.3-3.48v-10.6c0-2.02,1.38-3.48,3.3-3.48s3.3,1.46,3.3,3.48v10.6c0,2.05-1.38,3.48-3.3,3.48"/>
      <path class="cls-1" d="M113.18,24.65c0-.64-.38-1.1-1.05-1.1s-1.02.46-1.02,1.1v11c0,.67.36,1.1,1.02,1.1s1.05-.43,1.05-1.1v-11ZM112.13,38.93c-1.92,0-3.3-1.43-3.3-3.48v-10.6c0-2.02,1.38-3.48,3.3-3.48s3.3,1.46,3.3,3.48v10.6c0,2.05-1.38,3.48-3.3,3.48"/>
      <path class="cls-1" d="M122.13,25.11c0-.92-.28-1.36-1-1.36h-1v12.82h1c.72,0,1-.43,1-1.36v-10.11ZM121.26,38.68h-3.38v-17.04h3.38c1.92,0,3.12,1.18,3.12,3.56v9.98c0,2.4-1.2,3.51-3.12,3.51"/>
      <polygon class="cls-1" points="134.73 23.81 134.73 38.68 132.5 38.68 132.5 23.81 130.38 23.81 130.38 21.63 136.77 21.63 136.77 23.81 134.73 23.81"/>
      <polygon class="cls-1" points="142.66 31.9 142.66 38.68 140.41 38.68 140.41 31.9 137.98 21.63 140.23 21.63 141.66 28.95 143.09 21.63 145.27 21.63 142.66 31.9"/>
      <path class="cls-1" d="M150.42,24.68c0-.67-.23-.97-.72-.97h-1.1v6.12h1.1c.49,0,.72-.33.72-.97v-4.17ZM149.83,31.77h-1.23v6.91h-2.23v-17.04h3.45c1.46,0,2.79.79,2.79,3.07v3.99c0,2.25-1.33,3.07-2.79,3.07"/>
      <polygon class="cls-1" points="154.83 38.68 154.83 21.63 160.28 21.63 160.28 23.73 157.05 23.73 157.05 28.88 159.3 28.88 159.3 30.9 157.05 30.9 157.05 36.55 160.28 36.55 160.28 38.68 154.83 38.68"/>
      <path class="cls-1" d="M171.17,23.5c-.56,0-.92.56-.92,1.71,0,.77.2,1.84.46,2.89.82-.95,1.23-2.25,1.23-3.12,0-.95-.2-1.48-.77-1.48M169.69,31.66c-.56.69-.95,1.74-.95,2.89,0,1.48.54,2.28,1.43,2.28.41,0,.72-.18.92-.51-.54-1.08-1.1-3.12-1.41-4.66M174.16,38.93c-.79,0-1.46-.46-1.95-1.13-.64.77-1.48,1.13-2.43,1.13-1.87,0-3.15-1.71-3.15-4.1s1.05-4.07,2.43-5.4c-.44-1.25-.79-2.66-.79-4.02,0-2.51,1.13-4.04,2.97-4.04s2.53,1.51,2.53,3.51-.95,3.58-2.48,5.14c.28,1.23.74,3.28,1.1,4.2.54-1.15.9-2.94.9-4.2h1.71c-.03,1.84-.64,4.48-1.66,6.12.2.46.49.74.87.74s.61-.31.61-.87v-1.02h1.15v1.28c0,1.77-.66,2.66-1.82,2.66"/>
      <path class="cls-1" d="M185.84,24.68c0-.67-.23-.97-.72-.97h-1.1v6.12h1.1c.49,0,.72-.33.72-.97v-4.17ZM185.25,31.77h-1.23v6.91h-2.23v-17.04h3.45c1.46,0,2.79.79,2.79,3.07v3.99c0,2.25-1.33,3.07-2.79,3.07"/>
      <path class="cls-1" d="M194.28,24.64c0-.66-.23-.97-.72-.97h-1.07v5.73h.97c.54,0,.82-.33.82-1.05v-3.71ZM195.54,38.72c-.82,0-1.15-1.02-1.15-2.25v-4.07c0-.59-.31-1.05-.89-1.05h-1v7.29h-2.25v-17.04h3.45c1.46,0,2.81.79,2.81,3.02v3.58c0,1.02-.43,1.77-1.3,2.18.87.41,1.36,1.18,1.36,2.18v3.79c0,.77.13,1.3.38,1.74v.64h-1.41Z"/>
      <rect class="cls-1" x="198.99" y="21.63" width="2.25" height="17.04"/>
      <polygon class="cls-1" points="208.9 38.68 206.49 30.51 205.8 27.98 205.8 38.68 203.78 38.68 203.78 21.63 205.88 21.63 208.03 29.82 208.67 32.38 208.67 21.63 210.66 21.63 210.66 38.68 208.9 38.68"/>
      <polygon class="cls-1" points="216.91 23.81 216.91 38.68 214.68 38.68 214.68 23.81 212.56 23.81 212.56 21.63 218.95 21.63 218.95 23.81 216.91 23.81"/>
      <rect class="cls-1" x="220.93" y="21.63" width="2.25" height="17.04"/>
      <polygon class="cls-1" points="230.83 38.68 228.42 30.51 227.73 27.98 227.73 38.68 225.71 38.68 225.71 21.63 227.81 21.63 229.96 29.82 230.6 32.38 230.6 21.63 232.6 21.63 232.6 38.68 230.83 38.68"/>
      <path class="cls-1" d="M240.35,38.68l-.36-.95c-.38.79-1.18,1.2-2.1,1.2-1.69,0-2.94-1.28-2.94-3.43v-10.7c0-1.92,1.36-3.43,3.3-3.43s3.15,1.48,3.15,3.43v2.74h-2.07v-2.94c0-.59-.36-1.05-1.08-1.05-.67,0-1.05.49-1.05,1.07v11.13c0,.64.38,1.13,1.08,1.13s1.08-.49,1.08-1.13v-3.66h-1v-1.84h3.2v8.42h-1.2Z"/>
    </g>
  </g>
</svg>